<?xml version="1.0" encoding="UTF-8"?>
<svg xmlns="http://www.w3.org/2000/svg" version="1.1" viewBox="0 0 8 8">
  <defs>
    <style>
      .cls-1 {
        fill: #231f20;
      }
    </style>
  </defs>
  <!-- Generator: Adobe Illustrator 28.6.0, SVG Export Plug-In . SVG Version: 1.2.0 Build 709)  -->
  <g>
    <g id="Layer_1">
      <g id="Layer_1-2" data-name="Layer_1">
        <path class="cls-1" d="M4,0C1.8,0,0,1.8,0,4s1.8,4,4,4,4-1.8,4-4S6.2,0,4,0ZM4,1c.3,0,.6,0,.9.2-.2.2-.4.4-.4.6s.7.1.7.5-.4.3,0,.7c.3.3-.6,1-.7,1.4,0,.8.8,1,1.5,1s.5.2.5.4c-.5.8-1.5,1.2-2.5,1.2s-.7,0-1.1-.2c.2-.4-.3-1.3-.8-1.6-.2-.2-.7,0-1-.2,0-.3-.2-.5-.2-.8h.2c.2,0,.5.4.6.3.2,0-.7-1.3-.3-1.6.2,0,.6.4.5-.2-.1-.5.4-.3.7-.4.3,0,.5-.4,0-.6,0,0,0-.1-.2-.2.5-.3,1-.4,1.5-.4h0ZM6.3,2.1c.2.2.3.5.4.7h0s0,0-.2.2c-.3.3-.3-.2-.4-.3s-.6,0-.7,0c0-.2.5-.4.9-.5Z"/>
      </g>
    </g>
  </g>
</svg>