<?xml version="1.0" encoding="UTF-8"?>
<svg xmlns="http://www.w3.org/2000/svg" version="1.1" viewBox="0 0 24 24">
  <defs>
    <style>
      .cls-1 {
        fill: #fff;
      }
    </style>
  </defs>
  <!-- Generator: Adobe Illustrator 28.6.0, SVG Export Plug-In . SVG Version: 1.2.0 Build 709)  -->
  <g>
    <g id="Layer_1">
      <path class="cls-1" d="M24,4.6c-.9.4-1.9.7-2.8.8,1-.6,1.8-1.6,2.2-2.7-1,.6-2,1-3.1,1.2-1.9-2-5-2.1-7-.2-1.3,1.2-1.8,3-1.4,4.7-4.1-.2-7.7-2.2-10.1-5.1-.4.7-.7,1.6-.7,2.5,0,1.7.9,3.2,2.2,4.1-.8,0-1.5-.2-2.2-.6h0c0,2.4,1.6,4.4,3.9,4.9-.7.2-1.5.2-2.2,0,.6,2,2.5,3.4,4.6,3.4-1.7,1.4-3.9,2.1-6.1,2.1-.4,0-.8,0-1.2,0,2.3,1.4,4.9,2.2,7.6,2.2,9.1,0,14-7.5,14-14s0-.4,0-.6c1-.7,1.8-1.6,2.5-2.5h0Z"/>
    </g>
  </g>
</svg>